{
	"meshes":[{
		"name":"Cube",
		"primitives":[{
			"attributes":{
				"POSITION":1,
				"NORMAL":2,
				"TEXCOORD_0":3
			},
			"indices":0,
			"material":0
		}]
	},
	{
		"name":"monoton logo black.ai",
		"primitives":[{
			"attributes":{
				"POSITION":5,
				"NORMAL":6,
				"TEXCOORD_0":7
			},
			"indices":4,
			"material":1
		}]
	},
	{
		"name":"monoton logo black.ai.1-green",
		"primitives":[{
			"attributes":{
				"POSITION":9,
				"NORMAL":10,
				"TEXCOORD_0":11
			},
			"indices":8,
			"material":2
		}]
	}],
	"asset":{
		"version":"2.0",
		"generator":"Maxon Cinema 4D 2026.1.3 (#200000219)"
	},
	"scenes":[{
		"nodes":[0,
		1,
		2]
	}],
	"nodes":[{
		"name":"Cube",
		"mesh":0,
		"translation":[0.0,
		0.0,
		0.0],
		"rotation":[0.18746797740459443,
		-0.10497177392244339,
		-0.10497177392244339,
		0.9709879755973816],
		"scale":[1.0,
		1.0,
		1.0]
	},
	{
		"name":"monoton logo black.ai.1",
		"children":[3]
	},
	{
		"name":"monoton logo black.ai",
		"mesh":1
	},
	{
		"name":"monoton logo black.ai.1-green",
		"mesh":2
	}],
	"accessors":[{
		"componentType":5123,
		"bufferView":0,
		"type":"SCALAR",
		"count":13092,
		"byteOffset":0,
		"min":[0],
		"max":[13091]
	},
	{
		"componentType":5126,
		"bufferView":1,
		"type":"VEC3",
		"count":13092,
		"byteOffset":0,
		"min":[-1.0,
		-1.5,
		-1.0],
		"max":[1.0,
		1.5,
		1.0]
	},
	{
		"componentType":5126,
		"bufferView":1,
		"type":"VEC3",
		"count":13092,
		"byteOffset":12,
		"min":[-0.9993995428085327,
		-0.9992515444755554,
		-0.9993995428085327],
		"max":[0.9993995428085327,
		0.9992515444755554,
		0.9993995428085327]
	},
	{
		"componentType":5126,
		"bufferView":1,
		"type":"VEC2",
		"count":13092,
		"byteOffset":24,
		"min":[0.0,
		0.0],
		"max":[1.0,
		1.0]
	},
	{
		"componentType":5123,
		"bufferView":2,
		"type":"SCALAR",
		"count":2880,
		"byteOffset":0,
		"min":[0],
		"max":[2879]
	},
	{
		"componentType":5126,
		"bufferView":3,
		"type":"VEC3",
		"count":2880,
		"byteOffset":0,
		"min":[-0.5938999056816101,
		-0.29409950971603396,
		-0.31232592463493349],
		"max":[0.24476514756679536,
		0.2999999523162842,
		0.000011018552868335974]
	},
	{
		"componentType":5126,
		"bufferView":3,
		"type":"VEC3",
		"count":2880,
		"byteOffset":12,
		"min":[-1.0,
		-1.0,
		-1.0],
		"max":[1.0,
		0.9999905824661255,
		1.0]
	},
	{
		"componentType":5126,
		"bufferView":3,
		"type":"VEC2",
		"count":2880,
		"byteOffset":24,
		"min":[0.0011079157702624798,
		0.0011079157702624798],
		"max":[0.996688723564148,
		0.7836978435516357]
	},
	{
		"componentType":5123,
		"bufferView":4,
		"type":"SCALAR",
		"count":2424,
		"byteOffset":0,
		"min":[0],
		"max":[2423]
	},
	{
		"componentType":5126,
		"bufferView":5,
		"type":"VEC3",
		"count":2424,
		"byteOffset":0,
		"min":[0.30552011728286745,
		-0.2999999523162842,
		-0.31177499890327456],
		"max":[0.5938999056816101,
		-0.011620165780186654,
		0.001112873898819089]
	},
	{
		"componentType":5126,
		"bufferView":5,
		"type":"VEC3",
		"count":2424,
		"byteOffset":12,
		"min":[-0.9999732971191406,
		-0.9998884797096252,
		-1.0],
		"max":[0.9998884797096252,
		0.9998939633369446,
		1.0]
	},
	{
		"componentType":5126,
		"bufferView":5,
		"type":"VEC2",
		"count":2424,
		"byteOffset":24,
		"min":[0.0011118592228740454,
		0.0011118592228740454],
		"max":[0.996688723564148,
		0.9873988628387451]
	}],
	"bufferViews":[{
		"buffer":0,
		"byteOffset":0,
		"byteLength":26184,
		"target":34963
	},
	{
		"buffer":0,
		"byteOffset":26184,
		"byteLength":418944,
		"target":34962,
		"byteStride":32
	},
	{
		"buffer":1,
		"byteOffset":0,
		"byteLength":5760,
		"target":34963
	},
	{
		"buffer":1,
		"byteOffset":5760,
		"byteLength":92160,
		"target":34962,
		"byteStride":32
	},
	{
		"buffer":2,
		"byteOffset":0,
		"byteLength":4848,
		"target":34963
	},
	{
		"buffer":2,
		"byteOffset":4848,
		"byteLength":77568,
		"target":34962,
		"byteStride":32
	}],
	"buffers":[{
		"uri":"data:application/octet-stream;base64,",
		"byteLength":445128
	},
	{
		"uri":"data:application/octet-stream;base64,",
		"byteLength":97920
	},
	{
		"uri":"data:application/octet-stream;base64,",
		"byteLength":82416
	}],
	"materials":[{
		"pbrMetallicRoughness":{
			"baseColorFactor":[0.7999998927116394,
			0.8000000715255737,
			0.800000011920929,
			1.0],
			"metallicFactor":0.0,
			"roughnessFactor":0.1
		},
		"emissiveFactor":[0.0,
		0.0,
		0.0],
		"alphaMode":"OPAQUE",
		"doubleSided":false,
		"name":"glass"
	},
	{
		"pbrMetallicRoughness":{
			"baseColorFactor":[0.01960664615035057,
			0.01960664615035057,
			0.01960664615035057,
			1.0],
			"metallicFactor":1.0,
			"roughnessFactor":0.8
		},
		"emissiveFactor":[0.0,
		0.0,
		0.0],
		"alphaMode":"OPAQUE",
		"doubleSided":false,
		"name":"black"
	},
	{
		"pbrMetallicRoughness":{
			"baseColorFactor":[0.219728484749794,
			1.0,
			0.010335385799407959,
			1.0],
			"metallicFactor":1.0,
			"roughnessFactor":0.8
		},
		"emissiveFactor":[0.0,
		0.0,
		0.0],
		"alphaMode":"OPAQUE",
		"doubleSided":false,
		"name":"green"
	}]
}