<?xml version="1.0" encoding="UTF-8"?>
<svg id="Layer_2" data-name="Layer 2" xmlns="http://www.w3.org/2000/svg" viewBox="0 0 1078 544.54">
  <defs>
    <style>
      .cls-1 {
        fill: #1e1e1e;
      }

      .cls-2 {
        fill: #6c3;
      }
    </style>
  </defs>
  <g id="Layer_1-2" data-name="Layer 1">
    <g>
      <path class="cls-1" d="M545.93,0c-59.88,0-114.56,22.99-154.97,61.64C352.99,22.46,299.61,0,237.51,0c-40.78,0-78.94,10.21-111.85,28.61C113.6,11.75,93.36,1.29,71.16,2.81l-13.37.89C25.27,5.86,0,32.86,0,65.46v411.83c0,34.19,27.71,61.9,61.9,61.9h17.83c34.18,0,61.9-27.71,61.9-61.9v-238.9c0-35.37,31.44-98.55,94.09-98.55s74.48,53.37,74.48,85.18v252.27c0,34.19,27.71,61.9,61.9,61.9h17.83c34.18,0,61.9-27.71,61.9-61.9v-238.9c0-35.37,31.15-98.55,93.21-98.55s74.48,53.37,74.48,85.18v252.27c0,34.19,27.71,61.9,61.9,61.9h17.83c34.18,0,61.9-27.71,61.9-61.9v-252.27C761.14,92.53,672.64,0,545.93,0Z"/>
      <path class="cls-2" d="M947.14,383.91c-15.43,0-29.76,14.32-29.76,29.75,0,16.53,14.34,29.78,29.76,29.78,16.53,0,29.76-13.24,29.76-29.78,0-15.43-13.23-29.75-29.76-29.75Z"/>
      <path class="cls-2" d="M947.14,282.81c-70.94,0-130.86,59.92-130.86,130.84s58.7,130.88,130.86,130.88,130.86-58.7,130.86-130.88-58.7-130.84-130.86-130.84ZM947.14,471.26c-32.3,0-57.58-25.3-57.58-57.6s25.84-57.56,57.58-57.56,57.58,25.29,57.58,57.56-24.75,57.6-57.58,57.6Z"/>
    </g>
  </g>
</svg>